<svg width="462" height="242" fill="none" xmlns="http://www.w3.org/2000/svg">
  <path d="M273.2 108.2c.3 0 .4.4.4 1.2 0 .8-.1 1.2-.4 1.2-3.5 0-6.4 1-8.8 3.2-2.3 2.1-4.5 5.9-6.6 11.4l-25 60c-.3.6-1 1-2.2 1-1.2 0-2-.4-2.2-1l-28-60.4c-2.7-5.8-5-9.6-6.8-11.4a8.6 8.6 0 0 0-6.6-2.8c-.4 0-.6-.4-.6-1.2 0-.8.2-1.2.6-1.2 2.7 0 4.7 0 6.2.2l7.6.2 13-.2c2-.2 4.7-.2 8-.2.4 0 .6.4.6 1.2 0 .8-.2 1.2-.6 1.2-8 0-12 1.6-12 4.8 0 .9.3 1.9.8 3L235 170l18.8-45.8c1-2.6 1.4-4.5 1.4-5.8 0-2.7-1.3-4.6-3.8-5.8a27 27 0 0 0-12-2c-.3 0-.4-.4-.4-1.2 0-.8.1-1.2.4-1.2 3.6 0 6.3 0 8.2.2l12 .2 7-.2c1.3-.2 3.5-.2 6.6-.2Zm73.3 66c.4 0 .8.2 1 .8.4.4.5.8.2 1.2a44.2 44.2 0 0 1-29.2 11.6c-7.8 0-14.6-1.8-20.4-5.4-5.7-3.6-10-8.3-13-14a43.5 43.5 0 0 1-4.2-19 42.1 42.1 0 0 1 21.2-37.2 42 42 0 0 1 21.8-5.8c7.2 0 12.8 1.8 16.8 5.4a18 18 0 0 1 5.4 18c-.2.6-.8 1-1.8 1l-49.2.4c-.6 3.6-1 7-1 10.4 0 11.6 2.8 21 8.4 28.4a27.8 27.8 0 0 0 23.2 10.8c7.6 0 14.5-2.2 20.6-6.6h.2Zm-29.4-63.8c-5.4 0-10 1.6-13.8 4.8-3.6 3-6.1 7.4-7.6 13.2l37.2-.8c0-5.5-1.4-9.7-4.4-12.6-2.8-3.1-6.6-4.6-11.4-4.6Zm71.7-2.4-.2 8c-.2 4.4-.2 9.6-.2 15.6V195c0 9-1 16.4-2.8 22.2a32.8 32.8 0 0 1-8.6 14.6 50 50 0 0 1-16.8 10c-.3.1-.6-.2-1-1-.3-.7-.3-1.1 0-1.2a25.2 25.2 0 0 0 13.8-13.4c2.6-6.2 4-15 4-26.6v-67.8a28 28 0 0 0-1.4-10.4 4.9 4.9 0 0 0-4.8-3.2c-2.4 0-5.5.9-9.2 2.8h-.2c-.7 0-1.2-.4-1.4-1-.3-.7-.2-1.2.4-1.4l26-12 .6-.2c.4 0 .8.2 1.2.6.4.2.6.6.6 1ZM381 83c-2.8 0-5-.8-6.6-2.2a8.4 8.4 0 0 1-2.2-6.2c0-2.7.7-4.8 2.2-6.2a9.4 9.4 0 0 1 6.6-2.2c2.6 0 4.7.7 6.2 2.2a8.4 8.4 0 0 1 2.2 6.2c0 2.6-.8 4.7-2.2 6.2A8.4 8.4 0 0 1 381 83Zm36.3 102.4c-.2 0-.4-.4-.4-1.2 0-.8.2-1.2.4-1.2 3.6 0 6.3-.4 8-1a6.6 6.6 0 0 0 3.8-4c.7-2 1-5 1-8.8v-37.4c0-4.8-.5-8.3-1.6-10.4a5 5 0 0 0-5-3.2c-2.4 0-5.4.9-9 2.8h-.2c-.5 0-1-.4-1.2-1-.2-.7-.2-1.2.2-1.4l26-12 .8-.2c.3 0 .6.2 1 .6.4.2.6.6.6 1l-.2 8a522 522 0 0 0-.2 15.6v37.6c0 4 .4 6.9 1 8.8a6.7 6.7 0 0 0 3.6 4c1.8.6 4.4 1 8 1 .4 0 .6.4.6 1.2 0 .8-.2 1.2-.6 1.2l-7.4-.2-10.8-.2-10.8.2-7.6.2ZM434.1 83c-2.8 0-5-.8-6.6-2.2a8.4 8.4 0 0 1-2.2-6.2c0-2.7.8-4.8 2.2-6.2a9.4 9.4 0 0 1 6.6-2.2c2.7 0 4.8.7 6.2 2.2a8.4 8.4 0 0 1 2.2 6.2c0 2.6-.7 4.7-2.2 6.2a8.4 8.4 0 0 1-6.2 2.2Z" fill="#333"/>
  <g clip-path="url(#a)">
    <path d="M124 208.5c-.3 0-.5.1-.5.5v.5c0 .4.2.6.5.6h75.1c.6 0 .9-.2.9-.6v-.5c0-.4-.3-.5-.9-.5h-8.8c-5.9 0-10-1-12.5-3-2.3-2-4.2-5.3-5.7-9.9-9.5-28-18.3-56-26.4-84A9127 9127 0 0 1 121.5 27c-1.2-3.8-1.2-7 0-9.5 1.1-2.6 3.8-3.9 8-3.9h17c.6 0 .9-.2.9-.8v-.3c0-.3-.3-.5-.9-.5H32.7c-.7 0-1.1.2-1.1.5v.3c0 .6.4.8 1.1.8h21c3.9 0 5.8 1.7 5.8 5 0 1.4-.2 2.9-.6 4.3-.4 1.3-1 3.2-2 5.7l-6.3 15a3088.1 3088.1 0 0 1-14.2 35l-6 14.7c-3.6 9-7.3 17.7-11 26.2-3.7 8.6-6.9 16.7-9.7 24.6-2.9 7.6-5.2 14.9-7.1 21.8A76 76 0 0 0 0 184.4c0 9.7 2.5 16.7 7.4 21 5 4.4 11 6.6 18.5 6.6 6 0 11.6-1.5 16.5-4.6 5-3.3 9.6-7.3 14-12 4.5-5 8.7-10.1 12.7-15.6 4.2-5.6 8.5-10.8 12.8-15.5 4.4-5 9-9 13.7-12 5-3.3 10.2-5 16-5 9 0 16 2.6 21 7.7 5 5 8.5 10.9 10.8 17.4 1.5 4 2.6 7.9 3.4 11.5l2.8 9.8c.4 1.7.5 3.4.3 5.2 0 1.8-.5 3.5-1.7 5a11 11 0 0 1-5.1 3.2 26 26 0 0 1-9.4 1.4H124ZM48.4 97.7c10.8 0 18.6 2.3 23.6 7 5 4.6 7.4 12 7.4 22.4v28.4c-4.2 3-8.3 6-12.3 9.3-4 3.3-7.8 6.3-11.6 9s-7.5 5-11.1 6.8a24.5 24.5 0 0 1-25.3-2.2c-4.4-3.2-6.6-8.6-6.6-16 0-4.6.8-9.8 2.3-15.6 1.7-6 3.6-12 5.7-18 2.3-6 4.5-11.8 6.8-17.2l5.7-14h15.4Zm11-66c2.3-5.5 5.2-9 8.6-10.7 3.6-1.6 7.4-2.5 11.4-2.7v47.5c0 10.7-2.4 18.4-7.1 23.1-4.8 4.8-12.7 7.1-24 7.1H33.7L42 74.8l8-20 6-15.2c1.7-4.2 2.8-6.9 3.4-8Zm71.2 96.8a58 58 0 0 1 1.7 9.8c.2 1.7 0 3.2-.3 4.7-.2 1.2-.8 2.2-1.7 2.7a5 5 0 0 1-2 .3c-1.9 0-4.2-.4-6.8-1.1a37.6 37.6 0 0 0-25.6 2c-5 1.9-9.9 4.4-14.8 7.5v-27.3c0-10.5 2.3-18 6.8-22.6 4.8-4.6 12.7-6.8 24-6.8h9.9c1.5 5 2.9 10.3 4.2 15.5l4.6 15.3ZM111.8 96c-10.8 0-18.7-2.4-23.6-7.3-4.7-5-7.1-12.6-7.1-23V18.4c6.6.2 11.6 1.5 14.8 4 3.2 2.6 5.5 6 6.8 10.4l8 27L121.2 96h-9.4Z" fill="#EA7148"/>
  </g>
</svg>