<svg width="40" height="40" viewBox="0 0 40 40" fill="none" xmlns="http://www.w3.org/2000/svg">
<path fill-rule="evenodd" clip-rule="evenodd" d="M35.867 6H4.13547C3.8349 6 3.54665 6.12292 3.33412 6.34171C3.1216 6.5605 3.0022 6.85725 3.0022 7.16667V32.8333C3.0022 33.1427 3.1216 33.4395 3.33412 33.6583C3.54665 33.8771 3.8349 34 4.13547 34H35.867C36.1675 34 36.4558 33.8771 36.6683 33.6583C36.8808 33.4395 37.0002 33.1427 37.0002 32.8333V7.16667C37.0002 6.85725 36.8808 6.5605 36.6683 6.34171C36.4558 6.12292 36.1675 6 35.867 6ZM5.26873 31.6667V8.33333H34.7337V31.6667H5.26873Z" fill="#333333"/>
<path fill-rule="evenodd" clip-rule="evenodd" d="M36.6011 8.05334L20.6334 22.0533C20.4278 22.2338 20.1664 22.3327 19.8963 22.3322C19.6262 22.3318 19.3651 22.2321 19.1601 22.051L3.39409 8.051C3.21859 7.89553 3.09355 7.68845 3.03581 7.45762C2.97806 7.22679 2.99039 6.98329 3.07112 6.75989C3.15185 6.53648 3.29711 6.3439 3.48736 6.20804C3.67761 6.07219 3.90371 5.99959 4.13525 6H35.8667C36.0982 6.00046 36.324 6.07388 36.5137 6.21039C36.7035 6.3469 36.8481 6.53995 36.928 6.76357C37.008 6.9872 37.0196 7.23068 36.9611 7.46126C36.9027 7.69184 36.777 7.89846 36.6011 8.05334ZM32.7888 8.33334H7.18374L19.9035 19.629L32.7888 8.33334Z" fill="#333333"/>
</svg>
