<svg width="40" height="40" viewBox="0 0 40 40" fill="none" xmlns="http://www.w3.org/2000/svg">
<path d="M37.3648 3.13908C36.9883 2.81922 36.5344 2.60975 36.0511 2.53287C35.5679 2.45599 35.0734 2.51457 34.62 2.7024L3.33682 15.647C2.8313 15.86 2.40092 16.2255 2.10281 16.695C1.8047 17.1645 1.65296 17.7159 1.66773 18.2759C1.68251 18.8359 1.8631 19.3781 2.18554 19.8304C2.50797 20.2827 2.957 20.6238 3.47301 20.8084L10.2231 23.2102L13.881 35.6054C13.8879 35.6305 13.9106 35.6466 13.9211 35.6698C13.9588 35.7687 14.0138 35.8597 14.0835 35.9383C14.1893 36.0594 14.326 36.148 14.4781 36.1942C14.4956 36.2014 14.5078 36.2175 14.5252 36.221H14.5357L14.541 36.2228C14.676 36.2526 14.8164 36.2452 14.9478 36.2014C14.9617 36.1978 14.9757 36.1978 14.9914 36.1924C15.1176 36.147 15.2317 36.0723 15.3249 35.9741C15.3354 35.9615 15.3528 35.9597 15.3633 35.949L20.624 29.9966L28.3012 36.0904C28.7674 36.4644 29.3419 36.6667 29.9338 36.6667C31.2153 36.6667 32.3205 35.7468 32.5842 34.4636L38.2797 5.79673C38.3763 5.31008 38.3422 4.80567 38.1811 4.3373C38.0199 3.86894 37.7378 3.45419 37.3648 3.13729V3.13908ZM15.7893 25.5636L14.5549 31.7147L11.9796 22.9847L24.7516 16.1661L16.0268 25.1108C15.906 25.2345 15.8234 25.392 15.7893 25.5636ZM30.8731 34.1039C30.8403 34.2661 30.7674 34.4171 30.6613 34.5421C30.5552 34.6672 30.4195 34.7622 30.2672 34.8179C30.1187 34.8765 29.9578 34.8945 29.8005 34.87C29.6431 34.8455 29.4947 34.7795 29.3698 34.6784L21.0536 28.0763C20.8797 27.9387 20.6617 27.8734 20.4429 27.8933C20.2242 27.9132 20.0208 28.0169 19.8733 28.1837L16.2119 32.3196L17.4446 26.1864L29.9966 13.3187C30.1436 13.1675 30.233 12.9675 30.2488 12.7547C30.2645 12.5418 30.2055 12.3303 30.0825 12.1581C29.9594 11.9859 29.7803 11.8645 29.5776 11.8158C29.3749 11.7671 29.1619 11.7942 28.9769 11.8923L10.8831 21.5529L4.04396 19.1154C3.86262 19.054 3.70447 18.9362 3.5915 18.7784C3.47853 18.6206 3.41636 18.4306 3.41365 18.2349C3.40495 18.0375 3.45642 17.8421 3.56091 17.676C3.66541 17.5099 3.81776 17.3812 3.99681 17.3079L35.2748 4.36321C35.4351 4.29341 35.6112 4.27083 35.7833 4.29802C35.9554 4.32521 36.1167 4.40109 36.2491 4.51712C36.3807 4.62627 36.4801 4.77076 36.5362 4.93447C36.5923 5.09817 36.6029 5.27464 36.5668 5.44417L30.8731 34.1057V34.1039Z" fill="#333333"/>
</svg>
