<svg width="40" height="40" viewBox="0 0 40 40" fill="none" xmlns="http://www.w3.org/2000/svg">
<path d="M4.4118 36.7346C4.10812 36.7346 3.81958 36.6132 3.60701 36.4006C3.31851 36.1122 3.19711 35.6872 3.3034 35.2925L5.2166 28.1425C3.94114 25.7743 3.273 23.1026 3.273 20.4005C3.273 11.3985 10.5917 4.08154 19.5957 4.08154C28.5998 4.08154 35.9184 11.3985 35.9184 20.4005C35.9184 29.4025 28.5998 36.7194 19.5957 36.7194C16.8474 36.7194 14.1599 36.0363 11.7609 34.7308L4.7155 36.6891C4.60921 36.7194 4.51809 36.7346 4.4118 36.7346ZM11.9127 32.3778C12.1101 32.3778 12.3075 32.4387 12.4897 32.5298C14.6306 33.7898 17.0903 34.4575 19.5957 34.4575C27.3395 34.4575 33.6408 28.1577 33.6408 20.4156C33.6408 12.6737 27.3395 6.3738 19.5957 6.3738C11.8519 6.3738 5.5506 12.6737 5.5506 20.4156C5.5506 22.8901 6.20349 25.3037 7.43339 27.429C7.58523 27.6871 7.63081 28.0059 7.55489 28.2943L6.0365 33.9718L11.6242 32.4234C11.7153 32.393 11.8216 32.3778 11.9127 32.3778Z" fill="#333333"/>
<path d="M23.7562 29.1591C22.8148 29.1591 21.843 28.9466 20.8257 28.5063C19.8691 28.0965 18.9125 27.55 17.9863 26.8668C17.0752 26.1989 16.1795 25.4399 15.3595 24.6201C14.5396 23.7852 13.7803 22.9047 13.1122 21.9939C12.429 21.0376 11.8823 20.0964 11.4876 19.1704C11.0624 18.1685 10.8499 17.1817 10.8499 16.2405C10.8499 15.5726 10.9713 14.935 11.1991 14.343C11.442 13.7206 11.8368 13.1589 12.353 12.6731C13.3248 11.7168 14.7218 11.3676 15.8302 11.899C16.2098 12.0659 16.5287 12.3392 16.7717 12.7035L18.5329 15.1779C18.7151 15.4208 18.8519 15.6788 18.9582 15.9369C19.0797 16.2405 19.1556 16.5442 19.1556 16.8326C19.1556 17.2273 19.0491 17.622 18.8366 17.9711C18.6999 18.1988 18.5025 18.4721 18.2444 18.7301L18.047 18.9427C18.1381 19.0641 18.2444 19.2159 18.4114 19.3981C18.7303 19.7624 19.0795 20.1571 19.4591 20.5366C19.8387 20.9009 20.2183 21.2653 20.5979 21.5841C20.7801 21.7359 20.9321 21.8573 21.0536 21.9332L21.266 21.7207C21.5393 21.4474 21.8128 21.2349 22.0861 21.0983C22.5872 20.7795 23.3614 20.7036 24.0447 20.992C24.2876 21.0831 24.5306 21.2197 24.7887 21.4019L27.3245 23.1932C27.6738 23.4361 27.9469 23.77 28.1291 24.1495C28.281 24.5291 28.3419 24.863 28.3419 25.2122C28.3419 25.6676 28.2354 26.1078 28.038 26.5329C27.8407 26.9276 27.6129 27.2767 27.3396 27.5955C26.8537 28.1268 26.292 28.5215 25.6847 28.7796C25.0773 29.0376 24.4243 29.1591 23.7562 29.1591ZM14.7217 13.9483C14.6306 13.9483 14.327 13.9483 13.9474 14.3278C13.6589 14.601 13.4615 14.8895 13.3249 15.2083C13.1882 15.5271 13.1274 15.8914 13.1274 16.2557C13.1274 16.8933 13.2793 17.5764 13.583 18.3051C13.9018 19.0641 14.3726 19.8687 14.9496 20.6732C15.5417 21.4778 16.2098 22.2824 16.9539 23.0262C17.6979 23.7549 18.4873 24.438 19.3073 25.0452C20.0968 25.622 20.9017 26.0775 21.7065 26.4266C22.8605 26.9276 23.9232 27.049 24.7887 26.6847C25.0924 26.5632 25.3657 26.3507 25.639 26.0775C25.7756 25.9257 25.8821 25.7739 25.9732 25.5765C26.0187 25.4702 26.0489 25.3488 26.0489 25.2425C26.0489 25.2122 26.0489 25.1666 26.0034 25.0756L23.4677 23.3146C23.3614 23.2387 23.2551 23.178 23.164 23.1476C23.1033 23.178 23.0123 23.2235 22.8453 23.3905L22.2683 23.9674C21.828 24.4076 21.1295 24.5291 20.5677 24.3317L20.2944 24.2103C19.9451 24.0281 19.5502 23.7549 19.1099 23.3753C18.6847 23.011 18.2749 22.6315 17.8346 22.2064C17.4094 21.7662 17.0298 21.3563 16.6654 20.9313C16.2706 20.4607 15.9972 20.0812 15.815 19.7624L15.648 19.3677C15.6025 19.2159 15.5872 19.0489 15.5872 18.8971C15.5872 18.4721 15.7391 18.0926 16.0276 17.7889L16.6047 17.1969C16.7717 17.0299 16.8324 16.9389 16.8628 16.8781C16.8173 16.7719 16.7565 16.6808 16.6806 16.5745L14.904 14.0698L14.7217 13.9483Z" fill="#333333"/>
</svg>
